<svg aria-hidden="true" style="width:0;height:0;position:absolute;overflow:hidden" xmlns="http://www.w3.org/2000/svg"><defs><symbol id="icon-done" viewBox="0 0 32 32"><path d="M7.267 27.828c-.642-.308-1.284-.972-1.659-1.716-.275-.546-.303-1.099-.311-6.218l-.009-5.619-3.357-3.644 2.489-2.41 2.03 2.375.654-.367c.632-.355.877-.367 7.436-.356l6.782.011 1.066-1.201c.586-.661 1.882-2.149 2.879-3.308l1.813-2.107 3.164 1.916-6.76 7.071-.063 6.364c-.035 3.5-.1 6.61-.144 6.91-.103.698-1.124 1.992-1.818 2.306-.768.347-13.467.341-14.193-.007zm13.656-.812c.32-.096.798-.419 1.062-.718l.481-.543.094-12.583-3.724 3.9c-2.048 2.145-3.945 4.153-4.214 4.463s-.7.726-.956.926l-.466.362-6.995-7.56v5.09c0 6.058.021 6.146 1.625 6.672.624.205 12.408.197 13.093-.009zm-3.674-12.242 3.383-3.933-6.133-.046c-4.605-.035-6.29.009-6.764.178-.347.123-.612.303-.589.4s1.407 1.787 3.074 3.756c1.88 2.22 3.148 3.58 3.338 3.58s1.599-1.503 3.69-3.933z"/></symbol></defs></svg>