<svg aria-hidden="true" style="position: absolute; width: 0; height: 0; overflow: hidden;" version="1.1" xmlns="http://www.w3.org/2000/svg" xmlns:xlink="http://www.w3.org/1999/xlink">
<defs>
<symbol id="icon-steps" viewBox="0 0 32 32">
<path d="M6.544 1.351c-0.074-0.001-0.15 0-0.224 0.003-1.377 0.058-2.579 0.91-3.47 1.71-0.813 0.731-1.234 1.7-1.501 2.635-0.512 2.876-0.263 4.973 1.502 6.699 1.515 1.551 4.033 4.915 4.033 4.915 1.724-1.642 3.561-2.774 5.535-3.276 0 0 0.175-5.504-0.753-8.125-0.425-1.2-1.004-2.465-2.156-3.348-0.785-0.601-1.856-1.184-2.965-1.213zM25.456 10.032c-1.109 0.028-2.18 0.612-2.965 1.212-1.152 0.883-1.732 2.148-2.156 3.348-0.928 2.622-0.753 8.125-0.753 8.125 1.975 0.502 3.811 1.634 5.535 3.276 0 0 2.519-3.364 4.033-4.914 1.765-1.728 2.015-3.824 1.502-6.7-0.267-0.936-0.688-1.904-1.502-2.635-0.89-0.8-2.093-1.651-3.47-1.71-0.042-0.002-0.092-0.003-0.142-0.003-0.029 0-0.057 0-0.086 0.001l0.004-0zM12.933 15.444c-0.178 0-0.348 0.048-0.514 0.16-0.936 0.626-3.3 1.497-4.223 2.672-0.692 0.883 2.022 3.044 4.128 3.598s4.988-1.466 4.033-2.885c-0.718-1.067-2.18-3.54-3.424-3.546zM19.067 24.124c-1.244 0.006-2.705 2.478-3.424 3.546-0.956 1.419 1.929 3.44 4.033 2.885 2.106-0.555 4.82-2.716 4.128-3.598-0.923-1.175-3.287-2.047-4.223-2.672-0.143-0.1-0.32-0.16-0.511-0.16-0.001 0-0.002 0-0.003 0h0z"></path>
</symbol>
<symbol id="icon-sign-triangle" viewBox="0 0 32 32">
<path d="M71.97 62.69l2.337-2.874 8.765 12.646 13.293-18.586 2.995 2.395-16.434 20.693zM-31.039-79.022l2.337-2.874 8.765 12.646 13.293-18.586 2.994 2.395-16.434 20.693zM60.758 14.666l6.857-9.018 6.431 6.226 4.618-5.452 6.815 5.771-5.911 5.138 8.179 6.926-9.375 9.227-5.207-6.75-4.617 5.453-6.362-5.387 5.317-7.201z"></path>
<path d="M-130.489 0.978c-6.577 0-11.911 4.124-11.911 9.222 0 0.137 0.014 0.265 0.022 0.4l5.556-0.489c-0.097-0.366-0.153-0.787-0.156-1.221v-0.001c0.088-2.891 2.615-4.838 5.133-4.889 2.221-0.046 4.436 1.389 4.978 4.889 0 2.795-2.249 5.067-5.045 5.067-0.389 0-0.77-0.050-1.133-0.134l-0.022 0.023-0.533-0.201-0.422 6.379h7.111l-0.133-0.979c4.894-1.151 8.466-4.678 8.466-8.844 0-5.097-5.334-9.222-11.911-9.222zM-130.422 21.067c-2.519 0.051-5.045 1.998-5.133 4.889 0.002 2.797 2.269 5.065 5.066 5.067h0c2.795 0 5.045-2.271 5.045-5.067-0.542-3.499-2.756-4.934-4.978-4.889zM36.245 2.409l2.977 16.089h7.133l1.801-16.089h-11.911zM42.867 21.231c-2.797 0.002-5.065 2.269-5.067 5.066v0c0.002 2.797 2.269 5.065 5.066 5.067h0c2.795 0 5.045-2.271 5.045-5.067s-2.249-5.067-5.045-5.067z"></path>
<path d="M28.948 25.785c-2.201 3.813-23.697 3.813-25.899 0s8.547-22.429 12.95-22.429 15.151 18.616 12.95 22.429z"></path>
</symbol>
<symbol id="icon-radiobtn" viewBox="0 0 32 32">
<path d="M28.801 16c0 7.070-5.732 12.802-12.802 12.802s-12.802-5.732-12.802-12.802v0c0-7.070 5.732-12.802 12.802-12.802s12.802 5.732 12.802 12.802v0z"></path>
</symbol>
<symbol id="icon-question" viewBox="0 0 32 32">
<path d="M71.97 62.69l2.337-2.874 8.765 12.646 13.293-18.586 2.995 2.395-16.434 20.693zM-31.039-79.022l2.337-2.874 8.765 12.646 13.293-18.586 2.994 2.395-16.434 20.693zM60.758 14.666l6.857-9.018 6.431 6.226 4.618-5.452 6.815 5.771-5.911 5.138 8.179 6.926-9.375 9.227-5.207-6.75-4.617 5.453-6.362-5.387 5.317-7.201z"></path>
<path d="M16 0.978c-6.577 0-11.911 4.124-11.911 9.222 0 0.137 0.014 0.265 0.022 0.4l5.556-0.489c-0.097-0.366-0.153-0.787-0.156-1.221v-0.001c0.088-2.891 2.615-4.838 5.133-4.889 2.221-0.046 4.436 1.389 4.978 4.889 0 2.795-2.249 5.067-5.045 5.067-0.389 0-0.77-0.050-1.133-0.134l-0.022 0.023-0.533-0.201-0.422 6.379h7.111l-0.133-0.979c4.894-1.151 8.466-4.678 8.466-8.844 0-5.097-5.334-9.222-11.911-9.222zM16.067 21.067c-2.519 0.051-5.045 1.998-5.133 4.889 0.002 2.797 2.269 5.065 5.066 5.067h0c2.795 0 5.045-2.271 5.045-5.067-0.542-3.499-2.756-4.934-4.978-4.889zM36.245 2.409l2.977 16.089h7.133l1.801-16.089h-11.911zM42.867 21.231c-2.797 0.002-5.065 2.269-5.067 5.066v0c0.002 2.797 2.269 5.065 5.066 5.067h0c2.795 0 5.045-2.271 5.045-5.067s-2.249-5.067-5.045-5.067z"></path>
</symbol>
<symbol id="icon-multiply" viewBox="0 0 32 32">
<path d="M71.97 62.69l2.337-2.874 8.765 12.646 13.293-18.586 2.995 2.395-16.434 20.693zM-31.039-79.022l2.337-2.874 8.765 12.646 13.293-18.586 2.994 2.395-16.434 20.693zM3.597 11.093l6.857-9.018 6.431 6.226 4.618-5.452 6.815 5.771-5.911 5.138 8.179 6.926-9.375 9.227-5.207-6.75-4.617 5.453-6.362-5.387 5.317-7.201z"></path>
</symbol>
<symbol id="icon-minus" viewBox="0 0 32 32">
<path d="M3.029 13.546l25.617-3.506 0.324 11.92-25.617-0.701z"></path>
<path d="M71.97 62.69l2.337-2.874 8.765 12.646 13.293-18.586 2.995 2.395-16.434 20.693zM-31.039-79.022l2.337-2.874 8.765 12.646 13.293-18.586 2.994 2.395-16.434 20.693zM60.758 14.666l6.857-9.018 6.431 6.226 4.618-5.452 6.815 5.771-5.911 5.138 8.179 6.926-9.375 9.227-5.207-6.75-4.617 5.453-6.362-5.387 5.317-7.201z"></path>
</symbol>

<symbol id="icon-plus" viewBox="0 0 32 32">
</symbol>

<symbol id="icon-head" viewBox="0 0 32 32">
<path d="M16 0.72c-5.406 0-9.79 4.075-9.79 9.103 0 0.43 0.034 0.852 0.096 1.266v0.006c-0.048 0.634-0.075 1.373-0.075 2.118 0 0.363 0.006 0.725 0.019 1.085l-0.001-0.052c-0.467-0.148-1.035-0.326-1.42-0.319-0.258 0.005-0.433 0.095-0.433 0.332 0 0.189 0.865 1.713 0.959 1.87-0.214 0.25-0.273 0.693-0.273 1.049-0.117 0.539 0.262 1.111 0.296 1.364-0.244 0.595-0.412 0.713-0.417 1.353 0 0.791 0.153 1.027 0.889 1.027 0.566 0 0.948-0.285 1.094-0.777 0.781 3.829 2.093 6.82 3.509 8.235 1.137 1.74 3.196 2.902 5.546 2.902s4.406-1.162 5.543-2.901c1.417-1.415 2.731-4.406 3.513-8.235 0.146 0.491 0.528 0.775 1.094 0.775 0.736 0 0.889-0.235 0.889-1.026-0.005-0.64-0.173-0.757-0.417-1.353 0.034-0.253 0.412-0.825 0.296-1.364 0-0.356-0.057-0.799-0.27-1.049 0.095-0.157 0.956-1.681 0.956-1.87 0-0.238-0.175-0.327-0.434-0.332-0.385-0.007-0.954 0.171-1.422 0.318 0.035-1.098 0.016-2.155-0.057-3.144 0.063-0.417 0.099-0.843 0.099-1.277 0-5.028-4.384-9.103-9.79-9.103z"></path>
</symbol>
<symbol id="icon-gears" viewBox="0 0 32 32">
<path d="M14.101 2.367l-0.387 2.507-2.527-0.207v1.36l-2.24-0.68 0.273 2.58-2.173 0.067 0.813 1.827-2.167 1.493 1.42 1.22-2.773 1.287 2.98 1.627-0.947 1.293 1.42 0.813-0.407 1.627 1.56 0.473-0.133 1.493 1.487-0.273v1.56l2.040 0.067 0.2 1.56 2.373-0.54 0.813 1.22 2.373-1.56 1.827 0.747 1.427-1.833 1.287 0.474-0.133-1.353 1.087 0.2 0.407-1.627h1.013l-0.34-1.080 0.813 0.2-0.133-1.353 1.693-0.34-1.013-1.693 0.747-0.407-0.68-0.887 1.56-1.013-1.693-1.020 1.147-1.153-1.693-0.88 0.473-1.22-1.22-0.473 0.34-1.76-2.167-0.207-0.067-1.427-1.833 0.48-0.473-1.493-1.967 0.274-0.947-1.56-1.473 1.487-1.987-1.893zM16.881 6.367c0.004 0 0.009 0 0.014 0 1.65 0 3.174 0.538 4.407 1.448l-0.020-0.014-1.206 1.587c-0.919-0.623-2.045-0.987-3.26-0.987-0.58 0-1.14 0.085-1.667 0.24l-0.787-1.833c0.75-0.278 1.616-0.439 2.52-0.44h0zM17.008 9.84c0.049-0.002 0.107-0.003 0.165-0.003 0.943 0 1.816 0.301 2.528 0.812l-0.013-0.009-1.187 1.62c-0.691-0.438-1.58-0.504-2.347-0.114l-0.84-1.893c0.495-0.241 1.074-0.391 1.685-0.413l0.008-0zM17.081 13.007c0.6 0.001 1.086 0.487 1.087 1.086v0c-0.001 0.6-0.487 1.086-1.087 1.087h-0c-0.599 0-1.080-0.487-1.080-1.087s0.481-1.086 1.080-1.086zM9.441 13.267l1.753 0.2c-0.005 0.096-0.007 0.19-0.007 0.287 0 1.764 0.897 3.33 2.28 4.307l-1.22 1.6c-1.721-1.367-2.827-3.473-2.827-5.84 0-0.186 0.006-0.371 0.020-0.553zM12.921 13.367l2.033 0.22c-0.063 0.204-0.1 0.439-0.1 0.682 0 0.452 0.126 0.875 0.346 1.235l-0.006-0.010c0.14 0.227 0.308 0.421 0.503 0.584l0.004 0.003-1.133 1.547c-0.428-0.324-0.813-0.726-1.107-1.213-0.573-0.95-0.731-2.036-0.54-3.046zM19.601 14.080l1.914 0.207c-0.040 1.428-0.786 2.808-2.1 3.6-0.186 0.112-0.371 0.212-0.567 0.293l-0.76-1.7c0.145-0.055 0.268-0.116 0.384-0.186l-0.011 0.006c0.795-0.479 1.206-1.353 1.14-2.22zM22.341 14.753l1.907 0.22c-0.375 2.411-1.905 4.443-4.007 5.507l-0.84-1.967c1.507-0.745 2.615-2.122 2.94-3.76z"></path>
<path d="M25.287 20.467l-0.34 0.813-1.013-0.273 0.2 0.547-0.747 0.813 0.68 0.473-0.813 0.813 1.087 0.067 0.133 1.22 1.087-0.68 0.88 0.613 0.207-1.020 0.947-0.267-0.473-1.020 0.673-1.080h-1.147v-0.82l-0.953 0.407-0.407-0.607zM25.56 21.893c0.412 0 0.747 0.328 0.747 0.74s-0.335 0.747-0.747 0.747c-0.412 0-0.747-0.335-0.747-0.747s0.335-0.74 0.747-0.74zM5.287 18.434l-0.473 1.287-1.36-0.88-0.407 1.353-1.353-0.407 0.747 2.107-1.22 0.407 0.88 1.42-1.353 0.68 1.42 0.407-0.68 1.287 1.493 0.206-0.473 1.080 1.693-0.267v1.080l1.087-0.947 1.013 1.287 0.407-1.56 1.293 0.34-0.14-0.88 1.087-0.133-0.2-0.953h1.147l-0.74-1.627 1.013-0.473-1.087-0.813 0.34-0.747-1.287-0.613 0.407-1.147-1.087 0.333-0.133-0.74-0.613 0.2-0.267-0.607-0.613 0.407-0.54-1.087zM5.014 21.214l0.207 1.013-0.473 0.206-0.207 0.54-1.013-0.133v-0.407l0.134-0.547 0.407-0.407 0.947-0.267zM6.874 21.468l0.387 0.12 0.473 0.3 0.26 0.513-0.033 0.987-1.027-0.12-0.047-0.52-0.453-0.36 0.44-0.92zM5.827 22.634c0.375 0.001 0.679 0.305 0.68 0.68v0c-0.001 0.375-0.305 0.679-0.68 0.68h-0c-0.374 0-0.673-0.305-0.673-0.68s0.299-0.68 0.673-0.68zM5.147 24.241l0.44 0.273 0.56-0.133 0.46 0.92-0.34 0.227-0.527 0.194-0.56-0.107-0.76-0.633 0.727-0.74z"></path>
</symbol>
<symbol id="icon-flower" viewBox="0 0 32 32">
<path  d="M16 0.639c-1.265 0-2.61 0.366-3.766 1.006-1.149 0.635-2.126 1.551-2.567 2.707-0.003 0.007-0.011 0.011-0.014 0.019h0.007c-0.178 0.442-0.128 0.855-0.020 1.335-0.402-0.294-0.819-0.513-1.257-0.619l-0.020-0.007h-0.020c-0.258-0.048-0.554-0.076-0.857-0.076-0.044 0-0.087 0.001-0.131 0.002l0.006-0c-0.984 0.025-1.963 0.326-2.844 0.784-1.173 0.612-2.192 1.51-2.824 2.53s-0.959 2.283-0.942 3.534c0.017 1.244 0.383 2.491 1.237 3.424l0.014 0.018h0.007c0.321 0.36 0.733 0.528 1.23 0.681-0.476 0.178-0.892 0.404-1.211 0.704l-0.014 0.011-0.013 0.018c-0.867 0.935-1.227 2.185-1.244 3.437s0.309 2.522 0.942 3.541c0.633 1.020 1.645 1.911 2.817 2.524 1.168 0.609 2.508 0.94 3.805 0.716h0.020v-0.007c0.5-0.078 0.86-0.323 1.252-0.649-0.072 0.471-0.068 0.917 0.052 1.323l0.007 0.019 0.006 0.018c0.437 1.166 1.424 2.086 2.581 2.726s2.494 1.005 3.759 1.005c1.265 0 2.61-0.366 3.766-1.005 1.149-0.636 2.126-1.552 2.567-2.708 0.003-0.007 0.011-0.011 0.014-0.018h-0.007c0.178-0.441 0.128-0.855 0.020-1.335 0.402 0.293 0.819 0.512 1.257 0.619l0.020 0.007h0.020c1.303 0.23 2.652-0.105 3.825-0.717s2.192-1.505 2.824-2.524c0.633-1.019 0.959-2.283 0.942-3.534-0.017-1.245-0.38-2.496-1.237-3.43-0.004-0.007-0.009-0.007-0.014-0.012-0.323-0.365-0.736-0.528-1.237-0.68 0.476-0.178 0.892-0.404 1.211-0.704l0.013-0.014 0.014-0.018c0.867-0.935 1.227-2.185 1.244-3.436s-0.309-2.522-0.942-3.541c-0.633-1.019-1.645-1.911-2.817-2.523-0.88-0.459-1.86-0.765-2.844-0.79-0.033-0.001-0.072-0.001-0.11-0.001-0.301 0-0.595 0.027-0.88 0.079l0.030-0.005v-0.007c-0.007 0-0.013 0.007-0.020 0.007-0.5 0.078-0.86 0.327-1.252 0.656 0.072-0.471 0.068-0.917-0.052-1.323l-0.007-0.019-0.006-0.019c-0.437-1.166-1.424-2.086-2.581-2.726s-2.494-1.005-3.759-1.005zM16 1.833c0.988 0 2.139 0.308 3.1 0.839 0.955 0.528 1.705 1.264 2.015 2.071 0.097 0.361-0.11 1.596-0.626 2.751-0.055 0.123-0.11 0.246-0.171 0.368-0.458 0.562-0.872 1.13-1.159 1.654-0.054 0.1-0.105 0.196-0.151 0.294-0.1 0.111-0.203 0.213-0.312 0.309l-0.004 0.004h-0.184c-0.745-0.249-1.604-0.393-2.496-0.393-0.004 0-0.009 0-0.013 0h0.001c-0.006 0-0.012-0-0.019-0-0.892 0-1.751 0.144-2.554 0.409l0.057-0.016h-0.348c-0.011-0.007-0.046-0.021-0.1-0.067-0.039-0.036-0.075-0.072-0.11-0.11l-0.001-0.001c-0.275-0.698-0.713-1.412-1.225-2.089l-0.026-0.061c-0.294-0.676-0.548-1.385-0.691-1.966s-0.1-1.093-0.119-1.047v-0.007l0.007-0.013c0.304-0.814 1.059-1.557 2.020-2.089s2.119-0.839 3.108-0.839zM24.604 6.201c0.731 0.022 1.52 0.249 2.251 0.631 0.976 0.509 1.836 1.286 2.33 2.083s0.784 1.881 0.77 2.921c-0.014 1.026-0.32 1.994-0.908 2.647h-0.007c-0.277 0.258-1.536 0.719-2.876 0.882-0.134 0.016-0.267 0.032-0.402 0.043-0.761-0.090-1.507-0.135-2.146-0.104-0.143 0.009-0.266 0.020-0.387 0.034l0.032-0.003c-0.038-0.007-0.075-0.011-0.112-0.018-0.23-1.852-1.381-3.461-3.049-4.472l-0.059-0.097c0-0.013-0.003-0.048 0.014-0.11 0.011-0.041 0.038-0.104 0.059-0.159 0.511-0.57 0.964-1.28 1.337-2.028l0.006-0.018c0.006-0.007 0.014-0.011 0.019-0.018 0.466-0.558 0.953-1.061 1.474-1.525l0.014-0.012c0.469-0.406 0.96-0.633 0.908-0.625h0.021c0.227-0.040 0.466-0.056 0.71-0.049zM7.396 6.208c0.233-0.007 0.454 0.007 0.671 0.043 0.38 0.097 1.438 0.884 2.258 1.881 0.085 0.102 0.169 0.206 0.25 0.313 0.294 0.653 0.621 1.274 0.967 1.77 0.064 0.090 0.127 0.175 0.191 0.257 0.052 0.139 0.101 0.27 0.132 0.392-1.688 1.034-2.842 2.684-3.035 4.576-0.012 0-0.021 0.007-0.033 0.007-0.624-0.101-1.309-0.125-2.008-0.092-0.182 0.009-0.364 0.021-0.546 0.038-0.016 0-0.031-0.007-0.046-0.007-0.776-0.101-1.56-0.255-2.172-0.429s-1.067-0.461-1.033-0.423l-0.007-0.007-0.006-0.012c-0.604-0.653-0.927-1.63-0.942-2.671s0.276-2.125 0.77-2.921c0.495-0.796 1.362-1.574 2.337-2.084 0.732-0.381 1.52-0.608 2.251-0.631zM23.189 16.555c0.78 0.127 1.656 0.134 2.534 0.061 0.026 0.007 0.053 0 0.078 0.007 0.777 0.1 1.561 0.255 2.173 0.429s1.067 0.461 1.033 0.422l0.007 0.007 0.013 0.007c0.605 0.654 0.921 1.636 0.935 2.677s-0.276 2.125-0.77 2.922c-0.495 0.796-1.362 1.574-2.337 2.083-0.969 0.505-2.030 0.736-2.936 0.582-0.386-0.105-1.429-0.884-2.245-1.875-0.085-0.103-0.17-0.206-0.25-0.313-0.294-0.653-0.622-1.274-0.967-1.77-0.072-0.103-0.135-0.187-0.2-0.268l0.008 0.011c-0.043-0.104-0.088-0.237-0.125-0.372l-0.006-0.026c1.687-1.035 2.837-2.684 3.028-4.576 0.010 0 0.017-0.007 0.026-0.007zM6.276 16.597c0.747 0.087 1.479 0.128 2.107 0.098 0.121-0.007 0.235-0.020 0.348-0.031 0.039 0.007 0.075 0.016 0.112 0.024 0.23 1.852 1.385 3.461 3.054 4.471l0.060 0.098c0 0.014 0.003 0.048-0.014 0.11-0.011 0.041-0.038 0.104-0.059 0.159-0.516 0.575-0.969 1.291-1.343 2.046-0.006 0.007-0.014 0.011-0.020 0.018-0.466 0.558-0.952 1.061-1.474 1.525l-0.014 0.012c-0.469 0.407-0.96 0.633-0.908 0.626h-0.021c-0.91 0.161-1.979-0.073-2.955-0.583-0.976-0.508-1.843-1.286-2.337-2.082s-0.784-1.881-0.771-2.923c0.014-1.025 0.321-1.993 0.909-2.645h0.007c0.277-0.258 1.536-0.72 2.876-0.882 0.146-0.018 0.293-0.031 0.441-0.043zM13.308 21.884h0.178c0.75 0.252 1.614 0.397 2.511 0.397s1.761-0.145 2.569-0.414l-0.057 0.017h0.356c0.011 0.007 0.046 0.021 0.099 0.067 0.039 0.036 0.076 0.072 0.111 0.109l0.001 0.001c0.274 0.699 0.713 1.412 1.225 2.089l0.026 0.061c0.294 0.676 0.548 1.385 0.691 1.966s0.1 1.093 0.119 1.047v0.007l-0.007 0.012c-0.304 0.814-1.059 1.557-2.020 2.089s-2.119 0.839-3.108 0.839-2.139-0.307-3.1-0.839c-0.953-0.526-1.697-1.26-2.008-2.064-0.1-0.357 0.102-1.599 0.619-2.756 0.055-0.123 0.111-0.246 0.171-0.368 0.459-0.562 0.872-1.136 1.159-1.66 0.054-0.097 0.1-0.192 0.145-0.287 0.101-0.111 0.206-0.213 0.317-0.309l0.005-0.004z"></path>
</symbol>
<symbol id="icon-exlamation" viewBox="0 0 32 32">
<path  d="M71.97 62.69l2.337-2.874 8.765 12.646 13.293-18.586 2.995 2.395-16.434 20.693zM-31.039-79.022l2.337-2.874 8.765 12.646 13.293-18.586 2.994 2.395-16.434 20.693zM60.758 14.666l6.857-9.018 6.431 6.226 4.618-5.452 6.815 5.771-5.911 5.138 8.179 6.926-9.375 9.227-5.207-6.75-4.617 5.453-6.362-5.387 5.317-7.201z"></path>
<path  d="M10.044 1.522l2.978 16.090h7.132l1.801-16.090h-11.911zM16.667 20.345c-2.797 0.002-5.064 2.269-5.067 5.066v0c0.002 2.797 2.269 5.065 5.066 5.067h0c2.795 0 5.044-2.271 5.044-5.067s-2.249-5.067-5.044-5.067z"></path>
</symbol>
<symbol id="icon-equals" viewBox="0 0 32 32">
<path  d="M71.97 62.69l2.337-2.874 8.765 12.646 13.293-18.586 2.995 2.395-16.434 20.693zM-31.039-79.022l2.337-2.874 8.765 12.646 13.293-18.586 2.994 2.395-16.434 20.693zM60.758 14.666l6.857-9.018 6.431 6.226 4.618-5.452 6.815 5.771-5.911 5.138 8.179 6.926-9.375 9.227-5.207-6.75-4.617 5.453-6.362-5.387 5.317-7.201z"></path>
<path  d="M28.644 2.933l-25.622 3.511 0.333 7.711 25.622 0.689-0.334-11.911zM3.022 17.156l0.333 11.911 25.622-3.511-0.334-7.711-25.622-0.689z"></path>
</symbol>
<symbol id="icon-dot" viewBox="0 0 32 32">
<path  d="M30.588 16c0 8.057-6.532 14.588-14.588 14.588s-14.588-6.532-14.588-14.588v0c0-8.057 6.532-14.588 14.588-14.588s14.588 6.532 14.588 14.588v0z"></path>
</symbol>
<symbol id="icon-door-opened" viewBox="0 0 32 32">
<path d="M1.289 1.645v0.732l0.422 27.934v0.733l0.845-0.178 14.422-3.378v-0.466l-0.022-3.222h0.333l0.023 3.666 13.2 2.511-0.444-25-0.289-2.733-12.667 1.689 0.045 4.912h-0.334l-0.044-4.4v-0.489l-0.556-0.089-14.155-2.089-0.778-0.134zM2.623 3.044l10.955 1.645 0.688 21.333-11.2 3.155-0.444-26.133zM16.822 9.51h0.334l0.111 13.823h-0.311l-0.134-13.823zM28.733 14.288l0.089 3.489-0.955 0.022-0.090-3.489 0.956-0.022z"></path>
</symbol>
<symbol id="icon-divide" viewBox="0 0 32 32">
<path d="M71.97 62.69l2.337-2.874 8.765 12.646 13.293-18.586 2.995 2.395-16.434 20.693zM-31.039-79.022l2.337-2.874 8.765 12.646 13.293-18.586 2.994 2.395-16.434 20.693zM60.758 14.666l6.857-9.018 6.431 6.226 4.618-5.452 6.815 5.771-5.911 5.138 8.179 6.926-9.375 9.227-5.207-6.75-4.617 5.453-6.362-5.387 5.317-7.201z"></path>
<path d="M2.305 27.015l22.030-25.008 5.359 4.763-23.817 23.222z"></path>
</symbol>
<symbol id="icon-cross" viewBox="0 0 32 32">
<path  d="M27.506 1.281l-11.397 12.997-5.653-10.167-1.969 1.985 5.949 9.555-12.486 12.89 2.065 2.011 11.399-12.998 5.652 10.168 1.97-1.985-5.95-9.556 12.486-12.89-2.066-2.011z"></path>
</symbol>
<symbol id="icon-chbox" viewBox="0 0 32 32">
<path  d="M5.876 3.487h20.248c1.32 0 2.389 1.245 2.389 2.78v19.466c0 1.536-1.070 2.78-2.389 2.78h-20.248c-1.32 0-2.389-1.245-2.389-2.78v-19.466c0-1.536 1.070-2.78 2.389-2.78z"></path>
</symbol>
<symbol id="icon-arrow" viewBox="0 0 32 32">
<path d="M11.615 27.949l-2.064-12.127h-6.707l12.383-12.128 13.929 11.771-7.738 0.713-1.032 12.127z"></path>
</symbol>


<symbol id="icon-home" viewBox="0 0 32 32">
<path d="M16.712 1.007l-14.004 16.377 1.898 1.109 1.663-2.293 0.474 14.319 0.315 0.319 18.754 0.155 1.029-14.874 1.818 1.344 0.634-1.184-5.224-6.413-0.080-0.475 0.794-5.694-4.43-0.24 0.075 1.978-3.716-4.43zM16.712 3.379l9.494 12.501-0.869 12.741-2.217-0.235 0.869-9.734-6.643-0.080 0.63 9.814h-10.204l-0.949-13.135 9.889-11.872zM16.712 6.071l-2.532 3.401 2.372 2.058 0.395-0.235 1.823-1.503 0.235-0.399-2.293-3.321zM8.561 19.206l0.319 6.248h5.933l0.235-6.248h-6.488z"></path>
</symbol>

<symbol id="icon-planning" viewBox="0 0 32 32">
<path d="M2.12 2.431l1.106 22.855 13.49 0.316v-0.799l-12.533-0.79-1.431-20.941 19.993 1.58-0.316 10.251-0.79-0.57v-8.566l-17.457-1.589 0.948 16.5 12.235 0.781-0.176 0.176-0.316 1.589 0.158 2.378 1.273 2.378 3.010 1.589 3.967-0.799 2.063-1.905 2.536-3.642-2.221-5.398-1.264-1.273-0.957-0.158-2.045-0.957 0.623-11.735-21.898-1.273zM5.446 4.81l15.552 1.747 0.316 7.548-1.536-1.097 0.149 0.167-1.001-0.737h0.070l-1.334-0.957-0.562-0.377-0.843-0.614 0.737 0.632 0.509 0.518 0.632 0.632-2.063 0.316 2.607-0.132 1.431 0.913 1.044 1.123 2.221 1.747 0.728 0.29 1.966 2.73-0.851-2.273 0.535 0.211h1.115l0.948 1.106 1.431 5.082-3.493 4.757-3.651 0.948-2.852-1.58-1.431-2.703-0.158-1.106 0.614-1.527 0.974 0.413 1.273-0.632 0.316-1.273-0.641-2.221 0.167 2.703-0.957 0.948h-1.115l1.589-3.967-1.106-0.948-1.589-1.431-0.632-0.957-0.939-0.158-0.14-0.149-0.825-1.044-0.474-1.72v0.553l-0.167-0.807 0.079-0.061 0.088 0.316v-0.386l0.079-0.070 0.957-0.474 1.264-0.114-0.448-0.298 0.053-0.026 0.176 0.123-0.334-0.281-0.097 0.044-0.070-0.044h-0.79l-1.747 0.474v1.273l1.273 2.378 2.378 2.063 2.027 2.501-0.597 1.369 0.518-0.983-0.36 1.080-0.351 0.351 0.193-0.448-0.281 0.535-0.176 0.176-11.761-1.246-0.641-14.92z"></path>
</symbol>

<symbol id="icon-portfolio" viewBox="0 0 32 32">
<path d="M20.688 5.719l-0.521 0.708-16.479-0.188-2.188 2.896 0.479 16.063 0.188 0.604 0.625 0.396 26.521 0.083 0.333-0.333c0 0-0.002-0.043 0.188-0.375s0.667-18.583 0.667-18.583v-0.375l-0.667-0.75-9.146-0.146zM26.813 6.469l2.896 0.104 0.229 0.479-0.417 18.292-0.333 0.521h-0.146l0.146-0.313-24.458-1.479-0.729 1-1.188-0.708-0.417-15.667 0.333-0.479h0.292l-0.271 0.792 17.542 0.5 1.229-2.729h8.146l-2.854-0.313zM3.833 6.573l16.063 0.146-0.896 1.313-15.75-0.667 0.583-0.792zM2.813 24.448l0.646 1.271h-0.292l-0.333-0.333-0.021-0.938z"></path>
</symbol>
</defs>
</svg>
