<svg xmlns="http://www.w3.org/2000/svg" width="744.094" height="1052.362">
  <path style="fill:#4d4d4d;fill-opacity:1;stroke:#000;stroke-width:.06734259;stroke-linejoin:miter;stroke-miterlimit:4;stroke-opacity:1;stroke-dashoffset:0" d="M377.621 167.867c-15.44.074-30.872 6.418-46.312 19.912-.552.483-1.344.555-1.344 1.287v12.354l-11.719 8.388-6.406 209.813 8.531 16.402 2.281 1.393c9.458-57.2-5.033-168.28 13.5-191.294 4.672-5.894 4.795 2.685 4.75 3.618l-10.406 217.799c-.003.061-.209.15-.531.268v11.979c-.077 215.456-1.568 261.261 45.687 413.247a10.817 10.817 0 0 0-.468 3.216c0 4.972 3.241 9.005 7.25 9.005 4.008 0 7.25-4.033 7.25-9.005 0-1.376-.242-2.665-.688-3.832 50.6-69.701 39.679-463.4 39.25-703.351 0-.732-.736-.832-1.312-1.287-16.437-12.965-32.876-19.99-49.313-19.912zm-26.937 20.18c43.718 11.992 51.345 4.3 72 0 .215-.045.406.755.406 1.689v2.465c0 .934-.19 1.645-.406 1.689-19.447 3.901-43.455 3.901-72 0-.22-.03-.407-.755-.407-1.689v-2.465s.188-1.717.407-1.689zm-10.97 207.776c33.387 7.346 64.18 5.897 90 0 .264-.06.5.428.5.938v1.34c0 .51-.236.905-.5.938-21.348 2.688-41.447 9.33-90 0-.268-.024-.5-.427-.5-.938v-1.34c0-.51.227-.953.5-.938zM353.34 733.63c-.808 23.157-1.565 50.31 5.906 67.374.078.178 20.848 73.145 20.531 72.251l-25.28-71.42c-.317-.893 18.42 63.104 18.343 62.925-6.866-16.084-30.13-99.577-29.063-124.35.008-.19 1.906.398 1.907-.535-.377-180.565-.553-195.422 7.656-6.245z"/>
</svg>
