<svg aria-hidden="true" style="position:absolute;width:0;height:0;overflow:hidden" xmlns="http://www.w3.org/2000/svg">
  <defs>
   <symbol id="icon-grammar" viewBox="0 0 32 32">
    <path d="M14.101 2.367l-0.387 2.507-2.527-0.207v1.36l-2.24-0.68 0.273 2.58-2.173 0.067 0.813 1.827-2.167 1.493 1.42 1.22-2.773 1.287 2.98 1.627-0.947 1.293 1.42 0.813-0.407 1.627 1.56 0.473-0.133 1.493 1.487-0.273v1.56l2.040 0.067 0.2 1.56 2.373-0.54 0.813 1.22 2.373-1.56 1.827 0.747 1.427-1.833 1.287 0.473-0.133-1.353 1.087 0.2 0.407-1.627h1.013l-0.34-1.080 0.813 0.2-0.133-1.353 1.693-0.34-1.013-1.693 0.747-0.407-0.68-0.887 1.56-1.013-1.693-1.020 1.147-1.153-1.693-0.88 0.473-1.22-1.22-0.473 0.34-1.76-2.167-0.207-0.067-1.427-1.833 0.48-0.473-1.493-1.967 0.273-0.947-1.56-1.473 1.487-1.987-1.893zM16.881 6.367c1.646 0 3.166 0.531 4.4 1.433l-1.207 1.587c-0.92-0.623-2.045-0.987-3.26-0.987-0.58 0-1.14 0.085-1.667 0.24l-0.787-1.833c0.787-0.282 1.636-0.44 2.52-0.44zM17.008 9.84c0.953-0.036 1.896 0.242 2.68 0.8l-1.187 1.62c-0.691-0.438-1.58-0.504-2.347-0.113l-0.84-1.893c0.543-0.259 1.121-0.392 1.693-0.413zM17.081 13.007c0.599 0 1.087 0.488 1.087 1.087s-0.488 1.087-1.087 1.087c-0.599 0-1.080-0.488-1.080-1.087s0.481-1.087 1.080-1.087zM9.441 13.267l1.753 0.2c-0.005 0.096-0.007 0.19-0.007 0.287 0 1.765 0.897 3.33 2.28 4.307l-1.22 1.6c-1.72-1.367-2.827-3.473-2.827-5.84 0-0.186 0.007-0.371 0.020-0.553zM12.921 13.367l2.033 0.22c-0.184 0.618-0.119 1.311 0.24 1.907 0.138 0.23 0.312 0.423 0.507 0.587l-1.133 1.547c-0.428-0.324-0.813-0.726-1.107-1.213-0.573-0.95-0.731-2.036-0.54-3.047zM19.601 14.080l1.913 0.207c-0.040 1.428-0.786 2.808-2.1 3.6-0.186 0.112-0.372 0.212-0.567 0.293l-0.76-1.7c0.127-0.049 0.252-0.107 0.373-0.18 0.795-0.479 1.206-1.353 1.14-2.22zM22.341 14.753l1.907 0.22c-0.376 2.411-1.905 4.443-4.007 5.507l-0.84-1.967c1.507-0.745 2.615-2.122 2.94-3.76z"></path>
    <path d="M25.287 20.467l-0.34 0.813-1.013-0.273 0.2 0.547-0.747 0.813 0.68 0.473-0.813 0.813 1.087 0.067 0.133 1.22 1.087-0.68 0.88 0.613 0.207-1.020 0.947-0.267-0.473-1.020 0.673-1.080h-1.147v-0.82l-0.953 0.407-0.407-0.607zM25.56 21.893c0.412 0 0.747 0.328 0.747 0.74s-0.335 0.747-0.747 0.747c-0.412 0-0.747-0.335-0.747-0.747s0.335-0.74 0.747-0.74z"></path>
    <path d="M5.287 18.434l-0.473 1.287-1.36-0.88-0.407 1.353-1.353-0.407 0.747 2.107-1.22 0.407 0.88 1.42-1.353 0.68 1.42 0.407-0.68 1.287 1.493 0.207-0.473 1.080 1.693-0.267v1.080l1.087-0.947 1.013 1.287 0.407-1.56 1.293 0.34-0.14-0.88 1.087-0.133-0.2-0.953h1.147l-0.74-1.627 1.013-0.473-1.087-0.813 0.34-0.747-1.287-0.613 0.407-1.147-1.087 0.333-0.133-0.74-0.613 0.2-0.267-0.607-0.613 0.407-0.54-1.087zM5.014 21.214l0.207 1.013-0.473 0.207-0.207 0.54-1.013-0.133v-0.407l0.133-0.547 0.407-0.407 0.947-0.267zM6.874 21.468l0.387 0.12 0.473 0.3 0.26 0.513-0.033 0.987-1.027-0.12-0.047-0.52-0.453-0.36 0.44-0.92zM5.827 22.634c0.374 0 0.68 0.306 0.68 0.68s-0.306 0.68-0.68 0.68c-0.374 0-0.673-0.306-0.673-0.68s0.299-0.68 0.673-0.68zM5.147 24.241l0.44 0.273 0.56-0.133 0.46 0.92-0.34 0.227-0.527 0.193-0.56-0.107-0.76-0.633 0.727-0.74z"></path>
  </symbol>
  </defs>
</svg>
