<svg aria-hidden="true" style="position:absolute;width:0;height:0;overflow:hidden" xmlns="http://www.w3.org/2000/svg">
  <defs>
    <symbol id="icon-done" viewBox="0 0 32 32">
      <path d="M7.267 27.828c-0.642-0.308-1.284-0.972-1.659-1.716-0.275-0.546-0.303-1.099-0.311-6.218l-0.009-5.619-3.357-3.644 2.489-2.41 2.030 2.375 0.654-0.367c0.632-0.355 0.877-0.367 7.436-0.356l6.782 0.011 1.066-1.201c0.586-0.661 1.882-2.149 2.879-3.308l1.813-2.107 3.164 1.916-6.76 7.071-0.063 6.364c-0.035 3.5-0.1 6.61-0.144 6.91-0.103 0.698-1.124 1.992-1.818 2.306-0.768 0.347-13.467 0.341-14.193-0.007zM20.923 27.016c0.32-0.096 0.798-0.419 1.062-0.718l0.481-0.543 0.094-12.583-3.724 3.9c-2.048 2.145-3.945 4.153-4.214 4.463s-0.7 0.726-0.956 0.926l-0.466 0.362-6.995-7.56v5.090c0 6.058 0.021 6.146 1.625 6.672 0.624 0.205 12.408 0.197 13.093-0.009zM17.249 14.774l3.383-3.933-6.133-0.046c-4.605-0.035-6.29 0.009-6.764 0.178-0.347 0.123-0.612 0.303-0.589 0.4s1.407 1.787 3.074 3.756c1.88 2.22 3.148 3.58 3.338 3.58s1.599-1.503 3.69-3.933z"></path>
    </symbol>

    <symbol id="icon-gdisk" viewBox="0 0 87.3 78" xmlns="http://www.w3.org/2000/svg">
	<path d="m6.6 66.85 3.85 6.65c.8 1.4 1.95 2.5 3.3 3.3l13.75-23.8h-27.5c0 1.55.4 3.1 1.2 4.5z" fill="#0066da"/>
	<path d="m43.65 25-13.75-23.8c-1.35.8-2.5 1.9-3.3 3.3l-25.4 44a9.06 9.06 0 0 0 -1.2 4.5h27.5z" fill="#00ac47"/>
	<path d="m73.55 76.8c1.35-.8 2.5-1.9 3.3-3.3l1.6-2.75 7.65-13.25c.8-1.4 1.2-2.95 1.2-4.5h-27.502l5.852 11.5z" fill="#ea4335"/>
	<path d="m43.65 25 13.75-23.8c-1.35-.8-2.9-1.2-4.5-1.2h-18.5c-1.6 0-3.15.45-4.5 1.2z" fill="#00832d"/>
	<path d="m59.8 53h-32.3l-13.75 23.8c1.35.8 2.9 1.2 4.5 1.2h50.8c1.6 0 3.15-.45 4.5-1.2z" fill="#2684fc"/>
	<path d="m73.4 26.5-12.7-22c-.8-1.4-1.95-2.5-3.3-3.3l-13.75 23.8 16.15 28h27.45c0-1.55-.4-3.1-1.2-4.5z" fill="#ffba00"/>
</symbol>
  </defs>
</svg>


