<?xml version="1.0" encoding="UTF-8" standalone="no"?>
<!-- Created with Inkscape (http://www.inkscape.org/) -->

<svg
   xmlns:dc="http://purl.org/dc/elements/1.1/"
   xmlns:cc="http://creativecommons.org/ns#"
   xmlns:rdf="http://www.w3.org/1999/02/22-rdf-syntax-ns#"
   xmlns:svg="http://www.w3.org/2000/svg"
   xmlns="http://www.w3.org/2000/svg"
   xmlns:sodipodi="http://sodipodi.sourceforge.net/DTD/sodipodi-0.dtd"
   xmlns:inkscape="http://www.inkscape.org/namespaces/inkscape"
   width="200"
   height="200"
   id="svg3231"
   version="1.1"
   inkscape:version="0.48.5 r10040"
   sodipodi:docname="New document 1">
  <defs
     id="defs3233" />
  <sodipodi:namedview
     id="base"
     pagecolor="#ffffff"
     bordercolor="#666666"
     borderopacity="1.0"
     inkscape:pageopacity="0.0"
     inkscape:pageshadow="2"
     inkscape:zoom="0.87885424"
     inkscape:cx="-53.187543"
     inkscape:cy="67.352495"
     inkscape:document-units="px"
     inkscape:current-layer="layer1"
     showgrid="false"
     inkscape:window-width="1020"
     inkscape:window-height="483"
     inkscape:window-x="26"
     inkscape:window-y="26"
     inkscape:window-maximized="0" />
  <metadata
     id="metadata3236">
    <rdf:RDF>
      <cc:Work
         rdf:about="">
        <dc:format>image/svg+xml</dc:format>
        <dc:type
           rdf:resource="http://purl.org/dc/dcmitype/StillImage" />
        <dc:title></dc:title>
      </cc:Work>
    </rdf:RDF>
  </metadata>
  <g
     inkscape:label="Layer 1"
     inkscape:groupmode="layer"
     id="layer1"
     transform="translate(0,-852.36218)">
    <g
       transform="matrix(0.6459579,0,0,0.6459579,-774.91983,444.93982)"
       id="g3205">
      <path
         inkscape:connector-curvature="0"
         id="path3100"
         transform="matrix(8.0809504,0,0,8.0809504,256.1853,802.09235)"
         d="m 136.1875,6.28125 c -0.44798,0 -0.8125,0.2291705 -0.8125,0.5 l 0,2.03125 c -3.89489,0.4487935 -5.67072,2.243262 -6.875,4.84375 l 17.40625,0 -0.25,-0.65625 c -0.0479,-0.160596 -0.11578,-0.313616 -0.1875,-0.46875 -1.00535,-2.5911667 -4.48156,-3.5630294 -7.25,-3.78125 l 0,-1.96875 c 0,-0.2708295 -0.36452,-0.5 -0.8125,-0.5 l -1.21875,0 z"
         style="fill:#f2c189;fill-opacity:1;stroke:#000000;stroke-width:0.37817168;stroke-linejoin:miter;stroke-miterlimit:4;stroke-opacity:1;stroke-dasharray:none;stroke-dashoffset:0" />
      <g
         transform="matrix(1.2488707,0,0,1.2488707,580.23158,14.685402)"
         id="g3102">
        <path
           sodipodi:type="arc"
           style="fill:#f2c189;fill-opacity:1;stroke:#000000;stroke-width:3.0226531;stroke-miterlimit:4;stroke-opacity:1;stroke-dasharray:none"
           id="path3104"
           sodipodi:cx="629.17065"
           sodipodi:cy="620.72198"
           sodipodi:rx="47.484577"
           sodipodi:ry="59.355721"
           d="m 676.65523,620.72198 c 0,32.78126 -21.25957,59.35573 -47.48458,59.35573 -26.225,0 -47.48457,-26.57447 -47.48457,-59.35573 0,-32.78125 21.25957,-59.35572 47.48457,-59.35572 26.22501,0 47.48458,26.57447 47.48458,59.35572 z"
           transform="matrix(1.0104167,0,0,1.0666667,-10.016278,-46.327775)" />
        <g
           id="g3106">
          <path
             inkscape:connector-curvature="0"
             id="path3108"
             d="m 604.05201,646.84375 c 0.11958,5.29625 9.77445,9.5625 21.65625,9.5625 11.8818,0 21.53667,-4.26625 21.65625,-9.5625 -4.87321,2.99014 -12.74412,4.9375 -21.65625,4.9375 -8.91213,0 -16.78304,-1.94736 -21.65625,-4.9375 z"
             style="fill:#000000;stroke:none" />
          <g
             transform="translate(1.78343,0)"
             id="g3110">
            <g
               id="g3112">
              <path
                 inkscape:connector-curvature="0"
                 id="path3114"
                 d="m 608.90918,591.33075 c -6.35968,0 -11.5,7.52737 -11.5,16.8125 0,3.89324 0.91599,7.46271 2.4375,10.3125 2.61741,-1.15145 5.72065,-1.84375 9.0625,-1.84375 3.35045,0 6.47216,0.68684 9.09375,1.84375 1.51858,-2.84832 2.4375,-6.42341 2.4375,-10.3125 0,-9.28513 -5.17157,-16.8125 -11.53125,-16.8125 z"
                 style="fill:#ffffff;stroke:#000000;stroke-width:1.64699996;stroke-miterlimit:4;stroke-opacity:1;stroke-dasharray:none" />
              <path
                 transform="translate(0,-2)"
                 d="m 613.53089,606.89325 c 0,2.67107 -2.06221,4.83639 -4.60609,4.83639 -2.54387,0 -4.60608,-2.16532 -4.60608,-4.83639 0,-2.67107 2.06221,-4.83639 4.60608,-4.83639 2.54388,0 4.60609,2.16532 4.60609,4.83639 z"
                 sodipodi:ry="4.8363919"
                 sodipodi:rx="4.6060877"
                 sodipodi:cy="606.89325"
                 sodipodi:cx="608.9248"
                 id="path3116"
                 style="fill:#000000;fill-opacity:1;stroke:none"
                 sodipodi:type="arc" />
            </g>
            <g
               transform="translate(29.99999,0)"
               id="g3118">
              <path
                 inkscape:connector-curvature="0"
                 id="path3120"
                 d="m 608.90918,591.33075 c -6.35968,0 -11.5,7.52737 -11.5,16.8125 0,3.89324 0.91599,7.46271 2.4375,10.3125 2.61741,-1.15145 5.72065,-1.84375 9.0625,-1.84375 3.35045,0 6.47216,0.68684 9.09375,1.84375 1.51858,-2.84832 2.4375,-6.42341 2.4375,-10.3125 0,-9.28513 -5.17157,-16.8125 -11.53125,-16.8125 z"
                 style="fill:#ffffff;stroke:#000000;stroke-width:1.64699996;stroke-miterlimit:4;stroke-opacity:1;stroke-dasharray:none" />
              <path
                 sodipodi:type="arc"
                 style="fill:#276f20;fill-opacity:1;stroke:none"
                 id="path3122"
                 sodipodi:cx="608.9248"
                 sodipodi:cy="606.89325"
                 sodipodi:rx="4.6060877"
                 sodipodi:ry="4.8363919"
                 d="m 613.53089,606.89325 c 0,2.67107 -2.06221,4.83639 -4.60609,4.83639 -2.54387,0 -4.60608,-2.16532 -4.60608,-4.83639 0,-2.67107 2.06221,-4.83639 4.60608,-4.83639 2.54388,0 4.60609,2.16532 4.60609,4.83639 z"
                 transform="matrix(1.7407748,0,0,1.7407748,-450.83949,-451.37261)" />
              <path
                 transform="matrix(0.78293273,0,0,0.78293273,132.41431,129.93528)"
                 d="m 613.53089,606.89325 c 0,2.67107 -2.06221,4.83639 -4.60609,4.83639 -2.54387,0 -4.60608,-2.16532 -4.60608,-4.83639 0,-2.67107 2.06221,-4.83639 4.60608,-4.83639 2.54388,0 4.60609,2.16532 4.60609,4.83639 z"
                 sodipodi:ry="4.8363919"
                 sodipodi:rx="4.6060877"
                 sodipodi:cy="606.89325"
                 sodipodi:cx="608.9248"
                 id="path3124"
                 style="fill:#000000;fill-opacity:1;stroke:none"
                 sodipodi:type="arc" />
            </g>
            <g
               id="g3126">
              <path
                 style="fill:#ffffff;stroke:#000000;stroke-width:1.64699996;stroke-miterlimit:4;stroke-opacity:1;stroke-dasharray:none"
                 d="m 608.90918,591.33075 c -6.35968,0 -11.5,7.52737 -11.5,16.8125 0,3.89324 0.91599,7.46271 2.4375,10.3125 2.61741,-1.15145 5.72065,-1.84375 9.0625,-1.84375 3.35045,0 6.47216,0.68684 9.09375,1.84375 1.51858,-2.84832 2.4375,-6.42341 2.4375,-10.3125 0,-9.28513 -5.17157,-16.8125 -11.53125,-16.8125 z"
                 id="path3128"
                 inkscape:connector-curvature="0" />
              <path
                 sodipodi:type="arc"
                 style="fill:#276f20;fill-opacity:1;stroke:none"
                 id="path3130"
                 sodipodi:cx="608.9248"
                 sodipodi:cy="606.89325"
                 sodipodi:rx="4.6060877"
                 sodipodi:ry="4.8363919"
                 d="m 613.53089,606.89325 c 0,2.67107 -2.06221,4.83639 -4.60609,4.83639 -2.54387,0 -4.60608,-2.16532 -4.60608,-4.83639 0,-2.67107 2.06221,-4.83639 4.60608,-4.83639 2.54388,0 4.60609,2.16532 4.60609,4.83639 z"
                 transform="matrix(1.7407748,0,0,1.7407748,-451.02323,-451.11015)" />
              <path
                 sodipodi:type="arc"
                 style="fill:#000000;fill-opacity:1;stroke:none"
                 id="path3132"
                 sodipodi:cx="608.9248"
                 sodipodi:cy="606.89325"
                 sodipodi:rx="4.6060877"
                 sodipodi:ry="4.8363919"
                 d="m 613.53089,606.89325 c 0,2.67107 -2.06221,4.83639 -4.60609,4.83639 -2.54387,0 -4.60608,-2.16532 -4.60608,-4.83639 0,-2.67107 2.06221,-4.83639 4.60608,-4.83639 2.54388,0 4.60609,2.16532 4.60609,4.83639 z"
                 transform="matrix(0.78293273,0,0,0.78293273,132.23057,130.19774)" />
              <path
                 inkscape:connector-curvature="0"
                 id="path3134"
                 transform="matrix(8.0809504,0,0,8.0809504,254.40187,398.04467)"
                 d="m 48.03125,25.03125 c -0.02155,0.01371 -0.0625,0.04157 -0.0625,0.0625 0,0.04185 0.05923,0.0625 0.125,0.0625 0.06577,0 0.125,-0.02065 0.125,-0.0625 0,-0.04185 -0.05923,-0.0625 -0.125,-0.0625 -0.03289,0 -0.04095,-0.01371 -0.0625,0 z M 44.5,25.09375 c -0.03587,0 -0.0625,0.0519 -0.0625,0.09375 0,0.04185 0.02663,0.0625 0.0625,0.0625 0.03587,0 0.0625,-0.02065 0.0625,-0.0625 0,-0.04185 -0.02663,-0.09375 -0.0625,-0.09375 z m 3.25,0.34375 c -0.04783,0 -0.0625,0.04592 -0.0625,0.09375 0,0.04783 0.01467,0.09375 0.0625,0.09375 0.04783,0 0.09375,-0.04592 0.09375,-0.09375 0,-0.04783 -0.04592,-0.09375 -0.09375,-0.09375 z M 44.125,25.5 c -0.04185,0 -0.09375,0.02065 -0.09375,0.0625 0,0.04185 0.0519,0.09375 0.09375,0.09375 0.04185,0 0.0625,-0.0519 0.0625,-0.09375 0,-0.04185 -0.02065,-0.0625 -0.0625,-0.0625 z"
                 style="fill:#ffffff;fill-opacity:1;stroke:none" />
            </g>
          </g>
          <path
             inkscape:connector-curvature="0"
             id="path3136"
             d="m 625.69263,613.5625 c -5.72371,0 -10.34375,6.08933 -10.34375,13.59375 0,0.67601 0.021,1.35046 0.0937,2 0.73992,-6.55277 5.04638,-11.59375 10.25,-11.59375 5.20362,0 9.51008,5.04098 10.25,11.59375 0.0727,-0.64954 0.125,-1.32399 0.125,-2 0,-7.50442 -4.65129,-13.59375 -10.375,-13.59375 z"
             style="fill:#000000;stroke:none" />
          <g
             style="stroke:#000000;stroke-opacity:1"
             transform="translate(1,0)"
             id="g3138">
            <path
               inkscape:connector-curvature="0"
               id="path3140"
               d="m 639.69263,579.5625 c -5.72371,0 -10.34375,2.31213 -10.34375,5.16156 0,0.25669 0.021,0.51277 0.0937,0.75941 0.73992,-2.4881 5.04638,-4.40217 10.25,-4.40217 5.20362,0 9.51008,1.91407 10.25,4.40217 0.0727,-0.24664 0.125,-0.50272 0.125,-0.75941 0,-2.84943 -4.65129,-5.16156 -10.375,-5.16156 z"
               style="fill:#000000;stroke:#000000;stroke-opacity:1" />
            <path
               style="fill:#000000;stroke:#000000;stroke-opacity:1"
               d="m 609.69263,579.5625 c -5.72371,0 -10.34375,2.31213 -10.34375,5.16156 0,0.25669 0.021,0.51277 0.0937,0.75941 0.73992,-2.4881 5.04638,-4.40217 10.25,-4.40217 5.20362,0 9.51008,1.91407 10.25,4.40217 0.0727,-0.24664 0.125,-0.50272 0.125,-0.75941 0,-2.84943 -4.65129,-5.16156 -10.375,-5.16156 z"
               id="path3142"
               inkscape:connector-curvature="0" />
          </g>
        </g>
        <path
           style="fill:#d47912;fill-opacity:1;stroke:#000000;stroke-width:3.13800001;stroke-linejoin:miter;stroke-miterlimit:4;stroke-opacity:1;stroke-dasharray:none;stroke-dashoffset:0"
           d="m 631.65625,515.53125 c -13.6599,0 -25.0823,8.60512 -27.875,20.09375 -6.59999,-6.42923 -15.62085,-10.40625 -25.5625,-10.40625 -20.23081,0 -36.625,16.42544 -36.625,36.65625 0,4.57994 0.83981,8.95852 2.375,13 -1.88828,-0.32095 -3.82948,-0.46875 -5.8125,-0.46875 -18.4854,0 -33.46875,14.5297 -33.46875,32.46875 0,8.86052 3.66603,16.8898 9.59375,22.75 -7.97432,2.39745 -13.71875,8.99804 -13.71875,16.8125 0,9.83438 9.08099,17.8125 20.28125,17.8125 4.26817,0 8.23286,-1.14766 11.5,-3.125 -0.0798,0.70367 -0.125,1.39998 -0.125,2.125 0,10.38946 8.42304,18.8125 18.8125,18.8125 9.25271,0 16.8962,-6.66822 18.46875,-15.46875 5.98107,-2.65094 10.33673,-8.30114 11.09375,-15.0625 1.68309,-0.24542 3.33712,-0.62752 4.9375,-1.09375 -4.94664,-9.95572 -7.8125,-21.8651 -7.8125,-34.65625 0,-8.39665 1.25062,-16.41772 3.5,-23.75 22.53789,3.98376 32.85263,-13.64216 33.625,-30.15625 0,-0.0415 1.4e-4,-0.0836 0,-0.125 4.70981,3.07667 10.53752,4.90625 16.8125,4.90625 2.53135,0 4.97579,-0.32051 7.3125,-0.875 4.30615,9.21989 14.45938,15.6875 26.3125,15.6875 -0.82976,27.2627 7.88785,14.0777 8.4062,34.3125 0,14.02584 -3.4646,26.97558 -9.3125,37.46875 2.39291,1.32534 4.94238,2.38762 7.625,3.15625 -0.003,0.14407 0,0.29273 0,0.4375 0,11.59073 10.70771,20.96875 23.9375,20.96875 10.05479,0 18.66625,-5.43171 22.21875,-13.125 12.17734,-2.91274 21.15625,-12.85917 21.15625,-24.6875 0,-6.31403 -2.57726,-12.07201 -6.8125,-16.53125 0.55327,-1.98691 0.875,-4.07833 0.875,-6.21875 0,-9.1323 -5.36467,-17.13715 -13.40625,-21.65625 0.36588,-1.63381 0.5313,-3.30095 0.5313,-5.03125 C 720.5,576.44869 707.75287,565 692,565 c -0.0209,0 -0.0416,-4e-5 -0.0625,0 1.19539,-2.8195 1.875,-5.86735 1.875,-9.0625 0,-14.11381 -12.77838,-25.5625 -28.53125,-25.5625 -2.5272,0 -4.97924,0.29102 -7.3125,0.84375 -4.30667,-9.21886 -14.4602,-15.6875 -26.3125,-15.6875 z"
           id="path3144"
           inkscape:connector-curvature="0"
           sodipodi:nodetypes="scsscsscsscsscccscccscccccsscscscsscsscs" />
      </g>
      <path
         inkscape:connector-curvature="0"
         id="path3146"
         transform="matrix(8.0809504,0,0,8.0809504,256.1853,802.09235)"
         d="m 140.90625,9.1875 c -0.10278,1.44084 -1.79035,2.59375 -3.84375,2.59375 -2.02491,0 -3.69956,-1.118628 -3.84375,-2.53125 -2.46668,0.781574 -3.76026,2.350366 -4.71875,4.4375 l 17.40625,0 -0.25,-0.6875 c -0.0479,-0.160596 -0.11578,-0.313616 -0.1875,-0.46875 -0.69497,-1.79119 -2.55583,-2.8176151 -4.5625,-3.34375 z"
         style="fill:#d43737;fill-opacity:1;stroke:#000000;stroke-width:0.44828388;stroke-linejoin:miter;stroke-miterlimit:4;stroke-opacity:1;stroke-dasharray:none;stroke-dashoffset:0" />
    </g>
  </g>
</svg>
