<?xml version="1.0" encoding="UTF-8" standalone="no"?>
<!-- Created with Inkscape (http://www.inkscape.org/) -->

<svg
   xmlns:dc="http://purl.org/dc/elements/1.1/"
   xmlns:cc="http://creativecommons.org/ns#"
   xmlns:rdf="http://www.w3.org/1999/02/22-rdf-syntax-ns#"
   xmlns:svg="http://www.w3.org/2000/svg"
   xmlns="http://www.w3.org/2000/svg"
   xmlns:sodipodi="http://sodipodi.sourceforge.net/DTD/sodipodi-0.dtd"
   xmlns:inkscape="http://www.inkscape.org/namespaces/inkscape"
   id="svg2989"
   version="1.1"
   inkscape:version="0.48.5 r10040"
   width="1130"
   height="811"
   sodipodi:docname="tab.jpg">
  <metadata
     id="metadata2995">
    <rdf:RDF>
      <cc:Work
         rdf:about="">
        <dc:format>image/svg+xml</dc:format>
        <dc:type
           rdf:resource="http://purl.org/dc/dcmitype/StillImage" />
        <dc:title></dc:title>
      </cc:Work>
    </rdf:RDF>
  </metadata>
  <defs
     id="defs2993" />
  <sodipodi:namedview
     pagecolor="#ffffff"
     bordercolor="#666666"
     borderopacity="1"
     objecttolerance="10"
     gridtolerance="10"
     guidetolerance="10"
     inkscape:pageopacity="0"
     inkscape:pageshadow="2"
     inkscape:window-width="1366"
     inkscape:window-height="705"
     id="namedview2991"
     showgrid="false"
     inkscape:zoom="0.45"
     inkscape:cx="904.91738"
     inkscape:cy="424.97548"
     inkscape:window-x="-8"
     inkscape:window-y="-8"
     inkscape:window-maximized="1"
     inkscape:current-layer="svg2989" />
  <g
     id="g3865">
    <path
       inkscape:connector-curvature="0"
       id="rect3759"
       d="m -0.50369258,765.82329 c 0,23.49269 16.88354958,42.48285 37.52808358,42.48285 l 1055.951209,0 c 20.6446,0 37.5281,-18.99016 37.5281,-42.48285 l 0,-720.64658 c 0,-23.492683 -16.8835,-42.4828501 -37.5281,-42.4828501 l -1055.951209,0 c -20.644534,0 -37.52808358,18.9901671 -37.52808358,42.4828501 l 0,720.64658 z m 10.87115058,0 0,-720.64658 c 0,-16.669029 11.746424,-29.987894 26.656933,-29.987894 l 1055.951209,0 c 14.9105,0 26.657,13.318865 26.657,29.987894 l 0,720.64658 c 0,16.66903 -11.7465,29.9879 -26.657,29.9879 l -1055.951209,0 c -14.910509,0 -26.656933,-13.31887 -26.656933,-29.9879 z"
       style="font-size:medium;font-style:normal;font-variant:normal;font-weight:normal;font-stretch:normal;text-indent:0;text-align:start;text-decoration:none;line-height:normal;letter-spacing:normal;word-spacing:normal;text-transform:none;direction:ltr;block-progression:tb;writing-mode:lr-tb;text-anchor:start;baseline-shift:baseline;color:#000000;fill:#ffffff;fill-opacity:1;stroke:none;stroke-width:15;marker:none;visibility:visible;display:inline;overflow:visible;enable-background:accumulate;font-family:Sans;-inkscape-font-specification:Sans" />
    <rect
       transform="matrix(0,-1,1,0,0,0)"
       ry="31.746014"
       rx="35.499199"
       y="10.934685"
       x="-797.26355"
       height="1108.1306"
       width="776.77032"
       id="rect2989"
       style="fill:#666666;fill-opacity:1;stroke:none" />
    <rect
       transform="matrix(0,-1,1,0,0,0)"
       style="fill:#000000;fill-opacity:1;stroke:none"
       id="rect3765"
       width="719.76282"
       height="1072.0881"
       x="-765.38141"
       y="28.955925"
       rx="32.893894"
       ry="30.713463" />
    <path
       inkscape:connector-curvature="0"
       id="path3059"
       d="m 51.468907,37.051907 c -20.079996,0 -36.504933,17.519084 -36.504933,39.207996 l 0,665.324217 c 0,21.68893 16.424937,39.23685 36.504933,39.23685 l 1027.062193,0 c 20.08,0 36.5049,-17.54792 36.5049,-39.23685 l 0,-665.324217 c 0,-21.688912 -16.4249,-39.207996 -36.5049,-39.207996 l -1027.062192,0 z m 0,11.540249 343.073413,0 0,3.923685 74.37766,0 0,8.107025 c 0,11.468211 13.40106,20.685897 30.0307,20.685897 l 138.29928,0 c 16.62963,0 30.03071,-9.217686 30.03071,-20.685897 l 0,-8.107025 68.17699,0 0,-3.923685 343.07344,0 c 14.5027,0 25.9273,12.278568 25.9273,27.667747 l 0,665.324217 c 0,15.38919 -11.4246,27.6966 -25.9273,27.6966 l -1027.062192,0 c -14.502772,0 -25.927317,-12.30741 -25.927317,-27.6966 l 0,-665.324217 c 0,-15.389179 11.424545,-27.667747 25.927317,-27.667747 z m 514.898873,0.605863 c 11.47562,0 20.7601,6.397714 20.7601,14.30991 0,7.912188 -9.28448,14.338759 -20.7601,14.338759 -11.47554,0 -20.79049,-6.426571 -20.79049,-14.338759 0,-7.912196 9.31495,-14.30991 20.79049,-14.30991 z"
       style="font-size:medium;font-style:normal;font-variant:normal;font-weight:normal;font-stretch:normal;text-indent:0;text-align:start;text-decoration:none;line-height:normal;letter-spacing:normal;word-spacing:normal;text-transform:none;direction:ltr;block-progression:tb;writing-mode:lr-tb;text-anchor:start;baseline-shift:baseline;color:#000000;fill:#ffffff;fill-opacity:1;stroke:none;stroke-width:6;marker:none;visibility:visible;display:inline;overflow:visible;enable-background:accumulate;font-family:Sans;-inkscape-font-specification:Sans" />
    <path
       inkscape:connector-curvature="0"
       id="rect3778"
       d="m 531.85131,792.68666 c -4.26086,0 -8.11546,-0.72843 -11.06445,-2.0178 -2.94904,-1.28931 -5.28052,-3.2898 -5.28052,-6.01138 l 0,-0.27321 3.52405,0 0,0.27321 c 0,0.81163 0.92013,1.98949 3.24439,3.00572 2.32428,1.01617 5.75608,1.71302 9.57653,1.71302 l 66.29732,0 c 3.82049,0 7.25229,-0.69689 9.57654,-1.71302 2.32428,-1.01623 3.24438,-2.19409 3.24438,-3.00572 l 0,-0.27321 3.52409,0 0,0.27321 c 0,2.72158 -2.33152,4.72207 -5.28052,6.01138 -2.94903,1.28937 -6.80359,2.0178 -11.06449,2.0178 l -66.29732,0 z"
       style="font-size:medium;font-style:normal;font-variant:normal;font-weight:normal;font-stretch:normal;text-indent:0;text-align:start;text-decoration:none;line-height:normal;letter-spacing:normal;word-spacing:normal;text-transform:none;direction:ltr;block-progression:tb;writing-mode:lr-tb;text-anchor:start;baseline-shift:baseline;color:#000000;fill:#f8eeee;fill-opacity:1;stroke:none;stroke-width:9.14999962;marker:none;visibility:visible;display:inline;overflow:visible;enable-background:accumulate;font-family:Sans;-inkscape-font-specification:Sans" />
    <path
       style="font-size:medium;font-style:normal;font-variant:normal;font-weight:normal;font-stretch:normal;text-indent:0;text-align:start;text-decoration:none;line-height:normal;letter-spacing:normal;word-spacing:normal;text-transform:none;direction:ltr;block-progression:tb;writing-mode:lr-tb;text-anchor:start;baseline-shift:baseline;color:#000000;fill:#ffffff;fill-opacity:1;stroke:none;stroke-width:9.84987259;marker:none;visibility:visible;display:inline;overflow:visible;enable-background:accumulate;font-family:Sans;-inkscape-font-specification:Sans"
       d="m 522.32018,22.263166 c -5.48599,0 -10.44886,0.99839 -14.24581,2.76562 -3.79694,1.76713 -6.79881,4.50901 -6.79881,8.23923 l 0,0.37447 4.53734,0 0,-0.37447 c 0,-1.11242 1.18468,-2.72681 4.17723,-4.11966 2.99256,-1.39277 7.41111,-2.34787 12.33005,-2.34787 l 85.35961,0 c 4.91894,0 9.33749,0.95515 12.33005,2.34787 2.99256,1.39285 4.17724,3.00724 4.17724,4.11966 l 0,0.37447 4.53733,0 0,-0.37447 c 0,-3.73022 -3.00187,-6.4721 -6.79881,-8.23923 -3.79693,-1.76723 -8.75982,-2.76562 -14.24581,-2.76562 l -85.35961,0 z"
       id="path3785"
       inkscape:connector-curvature="0" />
    <rect
       ry="6.7020884"
       rx="20.863529"
       y="573.68011"
       x="1116.7798"
       height="115.99769"
       width="11.81618"
       id="rect3787"
       style="fill:#333333;fill-opacity:1;stroke:none" />
    <path
       inkscape:connector-curvature="0"
       id="rect3789"
       d="m 1122.4066,103.20137 c -3.1189,0 -5.6268,5.31259 -5.6268,11.91249 l 0,182.36209 c 0,6.59987 2.5079,11.91255 5.6268,11.91255 3.119,0 5.6269,-5.31268 5.6269,-11.91255 l 0,-63.98407 c -2.5617,-1.18307 -4.239,-3.18774 -4.239,-5.47118 l 0,-43.45154 c 0,-2.28346 1.6773,-4.28812 4.239,-5.47117 l 0,-63.98413 c 0,-6.59989 -2.5079,-11.91249 -5.6269,-11.91249 z"
       style="fill:#333333;fill-opacity:1;stroke:none" />
  </g>
</svg>
